<svg width="25" height="24" viewBox="0 0 25 24" fill="none" xmlns="http://www.w3.org/2000/svg">
<g clip-path="url(#clip0_606_231)">
<path d="M22.6935 7.49977H12.1935L7.30645 0.773963C7.1129 0.451382 6.83871 0.273963 6.48387 0.241704C6.12903 0.209446 5.79032 0.32235 5.46774 0.580414C4.98387 1.09654 4.95161 1.61267 5.37097 2.1288L9.19355 7.49977H2.08065C1.5 7.49977 1.00806 7.70138 0.604839 8.10461C0.201613 8.50783 0 8.98364 0 9.53203V10.5965C0 11.4998 0.419355 12.1127 1.25806 12.4353L4.1129 21.1933C4.24194 21.6449 4.5 22.0562 4.8871 22.4272C5.27419 22.7982 5.70968 22.9836 6.19355 22.9836H18.5806C19.0645 22.9836 19.5 22.7982 19.8871 22.4272C20.2742 22.0562 20.5323 21.6449 20.6613 21.1933L23.5161 12.532C24.3548 12.2094 24.7742 11.5965 24.7742 10.6933V9.6288C24.7742 9.0159 24.5726 8.50783 24.1694 8.10461C23.7661 7.70138 23.2742 7.49977 22.6935 7.49977ZM2.08065 9.53203H10.7419L11.4677 10.4998C11.5323 10.4998 11.5645 10.532 11.5645 10.5965H2.08065V9.53203ZM18.6774 20.6127V20.7094C18.6774 20.7417 18.6613 20.774 18.629 20.8062C18.5968 20.8385 18.5806 20.8707 18.5806 20.903H6.29032C6.22581 20.903 6.19355 20.8385 6.19355 20.7094L3.53226 12.6288H21.2419L18.6774 20.6127ZM13.3065 10.5965C13.5323 10.2094 13.6452 9.85461 13.6452 9.53203H22.6935V10.5965H13.3065ZM7.20968 19.0643C7.24194 19.2901 7.37097 19.4836 7.59677 19.6449C7.82258 19.8062 8.04839 19.8869 8.27419 19.8869H8.46774C8.72581 19.8224 8.93548 19.6611 9.09677 19.403C9.25806 19.1449 9.29032 18.8869 9.19355 18.6288L8.17742 14.5159C8.1129 14.2578 7.95161 14.0482 7.69355 13.8869C7.43548 13.7256 7.17742 13.6933 6.91935 13.7901C6.66129 13.8546 6.45161 14.0159 6.29032 14.274C6.12903 14.532 6.09677 14.774 6.19355 14.9998L7.20968 19.0643ZM16.3065 19.8869H16.5C16.7258 19.8869 16.9516 19.8062 17.1774 19.6449C17.4032 19.4836 17.5323 19.2901 17.5645 19.0643L18.5806 14.903C18.6452 14.6449 18.6048 14.3869 18.4597 14.1288C18.3145 13.8707 18.1129 13.7256 17.8548 13.6933C17.1774 13.5643 16.7581 13.8062 16.5968 14.4191L15.5806 18.532C15.3871 19.1772 15.629 19.6288 16.3065 19.8869ZM12.3871 19.8869C13.0645 19.8869 13.4032 19.532 13.4032 18.8224V14.7094C13.4032 14.032 13.0645 13.6933 12.3871 13.6933C11.7097 13.6933 11.371 14.032 11.371 14.7094V18.8224C11.371 19.532 11.7097 19.8869 12.3871 19.8869Z" fill="#371F3B"/>
</g>
<defs>
<clipPath id="clip0_606_231">
<rect width="24.7742" height="24" fill="white"/>
</clipPath>
</defs>
</svg>
