<svg width="18" height="19" viewBox="0 0 18 19" fill="none" xmlns="http://www.w3.org/2000/svg">
<path id="Vector" d="M9.02199 0.00965874L9.00702 12.5314M5.1038 4.30932C5.55537 4.30986 6.32686 3.79035 6.90025 3.35043C7.40511 2.96896 7.8449 2.50831 8.20258 1.98633C8.58596 1.41783 9.02124 0.635745 9.02198 0.0174846C9.02124 0.635745 9.45544 1.41887 9.83667 1.98829C10.1931 2.51112 10.6318 2.97282 11.1357 3.35549C11.7081 3.79679 12.4783 4.31814 12.9299 4.31868M5.10006 7.43976L1.57832 7.43554L1.57801 7.69302C1.57394 11.1556 2.07033 14.5996 1.08274 17.9184L1.00024 18.1945L1 18.3902L17 18.4117L17.0002 18.2161L16.9184 17.9397C15.9387 14.6186 16.4433 11.1734 16.4476 7.71081L16.4479 7.45333L12.9261 7.44912" stroke="black"/>
</svg>
