<svg width="24" height="24" viewBox="0 0 24 24" fill="none" xmlns="http://www.w3.org/2000/svg">
<path fill-rule="evenodd" clip-rule="evenodd" d="M16.3 14.2C17.7173 14.2001 19.0799 14.7473 20.1036 15.7275C21.1272 16.7078 21.733 18.0453 21.7945 19.4613L21.8 19.7V20.8C21.8002 21.355 21.5906 21.8896 21.2132 22.2966C20.8358 22.7036 20.3185 22.9529 19.765 22.9945L19.6 23H4.2C3.64497 23.0002 3.11038 22.7906 2.7034 22.4132C2.29642 22.0358 2.04713 21.5185 2.0055 20.965L2 20.8V19.7C2.00008 18.2827 2.5473 16.9201 3.52753 15.8964C4.50776 14.8728 5.84533 14.267 7.2613 14.2055L7.5 14.2H16.3ZM16.3 16.4H7.5C6.65827 16.4 5.84833 16.7216 5.23591 17.299C4.62349 17.8765 4.25488 18.6661 4.2055 19.5064L4.2 19.7V20.8H19.6V19.7C19.6 18.8583 19.2784 18.0483 18.701 17.4359C18.1235 16.8235 17.3339 16.4549 16.4936 16.4055L16.3 16.4ZM11.9 1C13.3587 1 14.7576 1.57946 15.7891 2.61091C16.8205 3.64236 17.4 5.04131 17.4 6.5C17.4 7.95869 16.8205 9.35764 15.7891 10.3891C14.7576 11.4205 13.3587 12 11.9 12C10.4413 12 9.04236 11.4205 8.01091 10.3891C6.97946 9.35764 6.4 7.95869 6.4 6.5C6.4 5.04131 6.97946 3.64236 8.01091 2.61091C9.04236 1.57946 10.4413 1 11.9 1ZM11.9 3.2C11.4666 3.2 11.0375 3.28536 10.6371 3.4512C10.2368 3.61704 9.87298 3.86011 9.56655 4.16655C9.26011 4.47298 9.01704 4.83677 8.8512 5.23714C8.68536 5.63752 8.6 6.06664 8.6 6.5C8.6 6.93336 8.68536 7.36248 8.8512 7.76286C9.01704 8.16323 9.26011 8.52702 9.56655 8.83345C9.87298 9.13989 10.2368 9.38296 10.6371 9.5488C11.0375 9.71464 11.4666 9.8 11.9 9.8C12.7752 9.8 13.6146 9.45232 14.2335 8.83345C14.8523 8.21458 15.2 7.37521 15.2 6.5C15.2 5.62479 14.8523 4.78542 14.2335 4.16655C13.6146 3.54768 12.7752 3.2 11.9 3.2Z" fill="#371F3B"/>
</svg>
