<svg width="29" height="29" viewBox="0 0 29 29" fill="none" xmlns="http://www.w3.org/2000/svg">
<g clip-path="url(#clip0_447_55)">
<path d="M7.07107 7.07151C5.11916 9.02342 4.1432 11.3804 4.1432 14.1426C4.1432 16.9047 5.11916 19.2617 7.07107 21.2136C9.02298 23.1656 11.38 24.1415 14.1421 24.1415C16.9043 24.1415 19.2613 23.1656 21.2132 21.2136C23.1651 19.2617 24.1411 16.9047 24.1411 14.1426C24.1411 11.3804 23.1651 9.02342 21.2132 7.07151C19.2613 5.1196 16.9043 4.14365 14.1421 4.14365C11.38 4.14365 9.02298 5.1196 7.07107 7.07151ZM20.0255 20.0259C18.405 21.6464 16.4439 22.4566 14.1421 22.4566C11.8404 22.4566 9.87924 21.6464 8.25879 20.0259C6.63833 18.4055 5.82811 16.4444 5.82811 14.1426C5.82811 11.8408 6.63833 9.87968 8.25879 8.25923C9.87924 6.63878 11.8404 5.82855 14.1421 5.82855C16.4439 5.82855 18.405 6.63878 20.0255 8.25923C21.6459 9.87968 22.4562 11.8408 22.4562 14.1426C22.4562 16.4444 21.6459 18.4055 20.0255 20.0259ZM16.5176 10.607L14.1421 12.9825L11.7667 10.607C11.38 10.2203 10.9933 10.2203 10.6066 10.607C10.2199 10.9937 10.2199 11.3804 10.6066 11.7671L12.982 14.1426L10.6066 16.518C10.2199 16.9047 10.2199 17.2914 10.6066 17.6781C10.9933 18.0648 11.38 18.0648 11.7667 17.6781L14.1421 15.3027L16.5176 17.6781C16.9043 18.0648 17.291 18.0648 17.6777 17.6781C18.0644 17.2914 18.0644 16.9047 17.6777 16.518L15.3022 14.1426L17.6777 11.7671C18.0644 11.3804 18.0644 10.9937 17.6777 10.607C17.291 10.2203 16.9043 10.2203 16.5176 10.607Z" fill="#371F3B"/>
</g>
<defs>
<clipPath id="clip0_447_55">
<rect width="20" height="20" fill="white" transform="translate(0 14.1426) rotate(-45)"/>
</clipPath>
</defs>
</svg>
