<svg width="342" height="662" viewBox="0 0 342 662" fill="none" xmlns="http://www.w3.org/2000/svg">
<path d="M169.932 22.5701L169.932 22.5699C159.009 21.6299 153.825 15.9872 151.374 10.5769C150.15 7.87328 149.608 5.22893 149.373 3.2608C149.255 2.27663 149.214 1.46126 149.202 0.891722C149.196 0.606944 149.198 0.383603 149.201 0.231325C149.202 0.155186 149.204 0.0968095 149.205 0.0574002L149.206 0.05H23.7563C24.8612 3.23032 24.5777 6.40348 24.0164 8.78493C23.7337 9.98426 23.3804 10.9837 23.0977 11.6834C22.9563 12.0333 22.8326 12.3084 22.7441 12.4961C22.6999 12.5899 22.6644 12.662 22.64 12.7106C22.6278 12.7349 22.6184 12.7534 22.6119 12.7658L22.6046 12.7799L22.6027 12.7835L22.6022 12.7845L22.6021 12.7847C22.6021 12.7848 22.6021 12.7848 22.5579 12.7614M169.932 22.5701L13.1588 21.3941C13.1754 21.4413 13.1754 21.4412 13.1755 21.4412L13.1757 21.4411L13.1767 21.4408L13.1769 21.4407L13.1803 21.4395L13.1944 21.4344C13.2067 21.4299 13.2251 21.4231 13.249 21.414C13.297 21.3958 13.3675 21.3683 13.4582 21.3311C13.6397 21.2568 13.902 21.1435 14.2261 20.9876C14.8742 20.6758 15.7694 20.1937 16.7588 19.5117C18.7374 18.1478 21.0944 15.9834 22.6031 12.7827L22.5579 12.7614M169.932 22.5701H169.936V22.5201C169.936 22.5701 169.936 22.5701 169.936 22.5701H169.937L169.94 22.5701L169.951 22.57L169.996 22.5694C170.036 22.5687 170.094 22.5673 170.17 22.5646C170.323 22.5591 170.546 22.548 170.83 22.526C171.398 22.4819 172.211 22.3937 173.188 22.2174C175.142 21.8649 177.755 21.1598 180.393 19.7492C185.663 16.9304 191.024 11.297 191.414 0.05H316.871C316.868 0.0637981 316.863 0.0797543 316.858 0.0978226C316.837 0.171405 316.808 0.280019 316.774 0.420549C316.704 0.701601 316.613 1.11035 316.525 1.62185C316.348 2.64477 316.183 4.07914 316.23 5.72529C316.325 9.01668 317.267 13.1584 320.66 16.5479C320.661 16.5487 320.662 16.5494 320.663 16.5501L320.664 16.5522L320.68 16.5725C320.694 16.5904 320.715 16.6167 320.743 16.6507C320.799 16.7187 320.882 16.8177 320.993 16.9417C321.215 17.1899 321.547 17.5385 321.986 17.9415C322.864 18.7473 324.172 19.7707 325.892 20.6411C329.322 22.3767 334.389 23.503 340.95 21.0905V339.95H0.05V64.933L0.425321 21.4689L169.932 22.5701ZM22.5579 12.7614C22.5579 12.7614 25.9239 6.41399 23.7033 0.05L22.5579 12.7614Z" fill="#FAFFCF" stroke="#FAFFCF" stroke-width="0.1"/>
<path d="M0 597.067V322H342V640.981C328.803 636.102 321.638 645.485 321.638 645.485C314.851 652.241 317.868 662 317.868 662H191.927C191.173 639.48 170.434 639.48 170.434 639.48C148.565 641.357 149.696 662 149.696 662H23.7552C26.0176 655.619 22.624 649.239 22.624 649.239C19.6075 642.858 13.1974 640.606 13.1974 640.606C6.41014 637.979 0 640.606 0 640.606V597.067Z" fill="#FAFFCF"/>
</svg>
